<svg xmlns="http://www.w3.org/2000/svg" width="25" height="24" fill="none"><path fill="#fff" d="M16.167 12.25a.75.75 0 0 0-.75-.75h-5a.75.75 0 0 0-.75.75v.5c0 1 1.383 1.75 3.25 1.75 1.866 0 3.25-.75 3.25-1.75v-.5zm-1.5-3.505c0-.966-.784-1.745-1.75-1.745-.967 0-1.75.779-1.75 1.745a1.75 1.75 0 1 0 3.5 0zm-10-4.245a2.5 2.5 0 0 1 2.5-2.5h11.5a2.5 2.5 0 0 1 2.5 2.5v14.25a.75.75 0 0 1-.75.75H6.167a1 1 0 0 0 1 1h13.25a.75.75 0 0 1 0 1.5H7.167a2.5 2.5 0 0 1-2.5-2.5v-15zm1.5 0V18h13.5V4.5a1 1 0 0 0-1-1h-11.5a1 1 0 0 0-1 1z"/></svg>