<svg xmlns="http://www.w3.org/2000/svg" width="64" height="64" fill="none"><path fill="#000" d="M29.3 32.8c0 1.43 1.177 2.546 2.685 2.546 1.507 0 2.684-1.116 2.684-2.546 0-1.429-1.177-2.546-2.684-2.546-1.508.045-2.685 1.162-2.685 2.546zm22.515-2.5c-1.507 0-2.685 1.117-2.685 2.546 0 1.43 1.178 2.546 2.685 2.546 1.507 0 2.685-1.117 2.685-2.546 0-1.43-1.178-2.546-2.685-2.546zm0 19.117c-1.507 0-2.685 1.117-2.685 2.547 0 1.429 1.178 2.545 2.685 2.545 1.507 0 2.685-1.116 2.685-2.546 0-1.429-1.178-2.546-2.685-2.546z"/><path fill="#000" d="M57.508 8.623c-2.656-3.21-7.408-3.347-10.203-.814l-.326.317-.653.497c-2.655 2.08-6.616 1.9-9.085-.497v-.181A7.331 7.331 0 0 0 34.12 6.18c-.187 0-.513-.181-.653-.181h-2.655c-.187 0-.327 0-.513.18h-.326c-.186 0-.326.182-.513.182 0 0-.186 0-.186.18-.186 0-.326.182-.512.182 0 0-.187 0-.187.18-.186.181-.326.181-.512.317 0 0-.187 0-.187.181-.186.18-.326.18-.512.317l-.187.18-.326.317-.652.498c-2.656 2.08-6.616 1.9-8.899-.498 0 0-.186 0-.186-.18l-.326-.317c-.979-.814-2.144-1.448-3.448-1.583h-2.982c0 .18-.186.18-.326.316h-.047c-.838.317-1.63.633-2.33 1.267l-.186.18-.512.498c-.652.633-.979 1.447-1.305 2.08 0 .181-.186.317-.186.498 0 .18-.186.316-.186.633-.187 1.13-.187 2.261.186 3.347 0 .18.186.316.186.497v.181c0 .181.187.317.187.498.186.18.186.316.326.633.326.18.652.497.838.633l.327.317.326.316c2.469 2.397 2.469 6.558-.187 9.136-.326.317-.838.814-.978 1.13-.186.182-.186.317-.326.634v.18c-.187.182-.187.317-.326.498v.181c0 .181-.187.317-.187.498v.18c0 .181 0 .317-.186.498v2.397c0 .18 0 .317.186.497v.181a7.35 7.35 0 0 0 1.957 3.212c2.656 2.577 2.656 6.738 0 9.27l-.186.182-.326.316v.181c-.187.181-.327.317-.327.498 0 0 0 .18-.186.18-.186.182-.186.317-.326.498l-.186.181c0 .181-.187.181-.187.317 0 .135-.186.18-.186.316 0 .181 0 .181-.186.317A4.888 4.888 0 0 0 5 51.588v1.267c.186.497.186.95.513 1.266 0 .18.186.317.186.317s0 .18.186.18c0 .181.187.317.187.498 0 0 0 .18.186.18.186.318.326.498.512.634 0 0 0 .181.187.181 0 0 0 .18.186.18 0 .182.187.182.187.182l.186.18c.186.182.326.182.326.317l.186.181s.187 0 .187.181c.186.181.326.317.512.317 0 0 .187 0 .187.18.186.181.326.181.512.317h.093c.187.181.326.181.653.181.186 0 .512.181.652.181h.186c.187 0 .326 0 .513.18h1.49c.513 0 .84-.18 1.305-.18h.187c.186 0 .326-.18.512-.18h.093c.187 0 .326-.182.513-.182h.186c.326-.18.839-.497 1.165-.633l.512-.497.187-.181c2.655-2.714 6.942-2.714 9.551 0a7.176 7.176 0 0 0 10.716-.498c1.957-2.397 1.957-5.925 0-8.503-2.656-3.21-7.408-3.346-10.203-.814l-.327.317-.652.497c-2.656 2.08-6.616 1.9-9.085-.497l-.326-.317-.513-.633c-2.143-2.578-1.957-6.422.513-8.819 1.49-1.266 2.143-3.03 2.143-4.794v-.497c0-1.583-.652-3.212-1.957-4.342 0-.181-.186-.181-.186-.317l-.513-.633c-2.143-2.578-1.957-6.422.513-8.82l.186-.18.186-.18c2.656-2.714 6.942-2.714 9.552 0l.186.18.186.18.326.318c.187 0 .187.18.327.18s.186.181.326.181.186.181.326.181.186.181.326.181.186.181.326.181.186.18.326.18.187 0 .326.182c.187 0 .187 0 .326.18h2.796c.186 0 .326 0 .512-.18h.327c.186 0 .326-.181.512-.181h.186c.187 0 .327-.181.653-.317.652-.316 1.304-.814 1.817-1.266l.186-.18c2.656-2.714 6.942-2.714 9.551 0 2.796 3.21 7.92 3.03 10.577-.317 1.77-2.94 1.77-6.468-.187-8.865z"/></svg>