<svg xmlns="http://www.w3.org/2000/svg" width="32" height="32" fill="none"><path fill="#75FB6E" d="M0 0h32v32H0z"/><path fill="#111" d="M13.64 7.402v-.035l.167-.144h2.569V6h-2.57l-.383.364v.508l-.18.143h-.028c.15.123.281.26.425.387z"/><path fill="#111" d="M13.284 6.999h-.508l-.345.366v.487l.345.364h.508l.364-.364v-.487l-.364-.366zm1.683 7.207h-.508l-.345.366v1.272l.345.364h.508l.364-.364v-1.272l-.364-.366zm-1.695 2.028h-.507l-.346.364v.488l.346.366h.507l.364-.366v-.488l-.364-.364zm6.627 0h-.508l-.344.364v.488l.344.366h.508l.365-.366v-.488l-.365-.364z"/><path fill="#111" d="m12.826 7.782-.364.043-.107.136-.505.058-1.223 1.549.06.505-.143.172.035.316.395-.046.11-.129.505-.058 1.21-1.548-.06-.498.128-.149-.041-.351zm-2.261 6.079.365.043.107.136.503.058 1.224 1.55-.06.504.144.173-.037.315-.394-.046-.11-.128-.505-.058-1.208-1.548.058-.499-.129-.148.042-.352z"/><path fill="#111" d="m10.831 9.986-.263.255-.003.173-.364.353-.03 2.89.356.365-.01.226.222.227.285-.276.009-.17.364-.353.018-2.881-.348-.36.01-.195-.246-.254zm8.225-2.584v-.035l-.167-.144h-2.574V6h2.57l.384.364v.508l.18.143h.028c-.146.123-.277.26-.421.387z"/><path fill="#111" d="M19.41 6.999h.509l.345.366v.487l-.345.364h-.508l-.364-.364v-.487l.364-.366zm-1.681 7.215h.508l.345.366v1.265l-.346.364h-.507l-.364-.364V14.58l.364-.366z"/><path fill="#111" d="m19.87 7.782.363.043.109.136.503.058 1.224 1.549-.06.505.144.172-.037.316-.395-.046-.11-.129-.504-.058-1.209-1.548.059-.498-.129-.149.041-.351zm2.26 6.079-.364.043-.107.136-.505.058-1.222 1.55.058.504-.143.173.036.315.395-.046.11-.128.505-.058 1.21-1.548-.059-.499.127-.148-.041-.352z"/><path fill="#111" d="m21.864 9.986.265.255.001.173.364.353.03 2.89-.356.365.01.226-.22.227-.285-.276-.01-.17-.365-.353-.018-2.881.348-.36-.01-.195.246-.254zM9.235 15.211h-.508l-.346.366v.488l.346.364h.508l.364-.364v-.488l-.364-.366z"/><path fill="#111" d="m9.026 16.093-.263.257-.003.171-.364.355-.027 2.267.353.364-.008.225.222.183.283-.23.01-.17.363-.354.02-2.259-.35-.36.012-.195-.248-.254zM6 13.726l.063.505 1.794 1.387.504-.064.175.142.313-.04-.049-.393-.128-.108-.063-.505-1.792-1.373-.497.063-.32.386z"/><path fill="#111" d="m13.292 17.632-.01-.19-.252-.248-.258.263.001.173-.29.295-.065.065v2.533l-.156.15H9.73l-.15-.15v-.509l-.36-.357h-.507l-.344.357v.508l.344.346h.508l.163.162v.508l.346.345h2.532l.358-.345v-.508l.162-.162h.51l.344-.346V17.99l-.344-.358zm10.156-2.421h.508l.345.366v.488l-.345.364h-.508l-.364-.364v-.488l.364-.366z"/><path fill="#111" d="m23.655 16.093.265.257.003.171.364.355.027 2.267-.353.364.008.225-.222.183-.283-.23-.01-.17-.365-.354-.018-2.259.35-.36-.012-.195.246-.254zm3.028-2.367-.064.505-1.793 1.387-.505-.064-.174.142-.315-.04.05-.393.129-.108.063-.505 1.792-1.373.497.063.32.386z"/><path fill="#111" d="m19.391 17.632.01-.19.252-.248.258.263-.003.173.292.295.064.065v2.533l.156.15h2.533l.15-.15v-.509l.358-.357h.507l.346.357v.508l-.346.346h-.507l-.163.162v.508l-.345.345H20.42l-.358-.345v-.508l-.163-.162h-.508l-.344-.346V17.99l.344-.358zm-3.747 3.999-.004-.003.006-.495-.355-.363-.508-.004-.362.354-.005.494-.151.162-.502-.004-2.413 2.358-.005.508.355.349.508.006 2.413-2.36.005-.496.145-.16.483.005.39-.35z"/><path fill="#111" d="m11.345 24.637-.16.152H8.653l-.149-.15v-.508l-.36-.358h-.507l-.344.358v.508l.344.344h.508l.163.164v.508l.345.345h2.534l.358-.346v-.507l.162-.164h.006l-.367-.346zm5.734-3.006.003-.003-.005-.495.355-.363.508-.004.36.354.005.494.152.162.501-.004 2.414 2.358.006.508-.355.349-.508.006-2.413-2.36-.006-.496-.144-.16-.485.005-.388-.35z"/><path fill="#111" d="m21.377 24.637.16.152h2.532l.15-.15v-.508l.358-.358h.507l.346.358v.508l-.346.344h-.507l-.162.164v.508l-.346.345h-2.533l-.358-.346v-.507l-.163-.164h-.005l.367-.346z"/></svg>