<svg xmlns="http://www.w3.org/2000/svg" width="64" height="64" fill="none"><g clip-path="url(#a)"><path fill="#fff" d="M51.736 10.979H12.221v35.915h39.515V10.979z"/><path fill="#E84142" fill-rule="evenodd" d="M63.979 32c0 17.65-14.317 31.958-31.979 31.958C14.34 63.958.021 49.65.021 32S14.34.043 32.001.043C49.66.043 63.978 14.35 63.978 32zm-41.04 12.718h-6.207c-1.304 0-1.948 0-2.34-.252a1.576 1.576 0 0 1-.716-1.232c-.023-.463.299-1.029.943-2.16l15.324-26.992c.652-1.146.982-1.719 1.398-1.93a1.582 1.582 0 0 1 1.43 0c.416.211.746.784 1.398 1.93l3.15 5.496.017.028c.704 1.23 1.06 1.853 1.217 2.508a4.662 4.662 0 0 1 0 2.182c-.157.66-.51 1.288-1.226 2.536l-8.049 14.22-.02.036c-.71 1.24-1.069 1.868-1.567 2.342a4.687 4.687 0 0 1-1.909 1.107c-.652.18-1.382.18-2.844.18zm15.672 0h8.893c1.312 0 1.972 0 2.365-.26a1.57 1.57 0 0 0 .715-1.24c.022-.448-.293-.991-.91-2.056l-.065-.11-4.454-7.616-.05-.086c-.627-1.057-.943-1.591-1.348-1.798a1.565 1.565 0 0 0-1.422 0c-.409.212-.739.77-1.39 1.892l-4.44 7.615-.015.027c-.65 1.12-.974 1.68-.95 2.14.03.503.29.965.714 1.24.385.252 1.045.252 2.357.252z" clip-rule="evenodd"/></g><defs><clipPath id="a"><path fill="#fff" d="M0 0h64v64H0z"/></clipPath></defs></svg>