<svg xmlns="http://www.w3.org/2000/svg" width="250" height="60" fill="none"><path fill="#656565" d="M49.616 40.307c-.616 0-.923-.154-1.231-.308-.154-.307-.308-.615-.308-1.076V21.692c0-.462.154-.923.308-1.077.308-.308.615-.462 1.23-.462h7.231c2.77 0 4.77.616 6.154 1.693 1.231 1.23 2 2.923 2 5.23 0 2.308-.615 4-2 5.231C61.77 33.384 59.616 34 56.846 34h-2.769v4.77c0 .461-.154.923-.307 1.077-.308.307-.616.307-1.231.307h-2.923v.154zm6.769-10.615c.77 0 1.385-.154 1.846-.616.462-.461.615-1.076.615-2 0-.923-.153-1.538-.615-2-.461-.461-1.077-.615-1.846-.615h-2.308v5.23h2.308zm15.538 11.077c-1.846 0-3.384-.615-4.461-1.846-1.077-1.231-1.693-2.923-1.693-5.077 0-1.692.308-3.077 1.077-4.308.77-1.23 1.846-2.154 3.231-2.923 1.385-.615 3.077-1.077 4.77-1.077 1.538 0 2.769.154 4 .462 1.23.307 2.153.769 3.23 1.384V39.23c0 .308 0 .616-.154.77-.154.154-.461.154-.769.154h-3.077c-.154 0-.462 0-.462-.154l-.307-.308-.462-.923c-.615.615-1.23 1.077-2 1.385-.769.461-1.846.615-2.923.615zm2.154-4c.77 0 1.385-.154 1.846-.615.462-.308.616-.924.616-1.539V30c-.308-.154-.924-.308-1.385-.308-1.077 0-1.846.308-2.462 1.077-.615.77-.923 1.692-.923 3.077 0 1.846.77 2.923 2.308 2.923zm12.154 3.539c-.615 0-.923-.154-1.23-.308-.308-.308-.308-.615-.308-1.077v-12c0-.307 0-.615.154-.77C85 26 85.308 26 85.616 26h3.077c.307 0 .461 0 .461.154.154 0 .154.154.308.308l.154.923c.615-.616 1.23-.923 2.154-1.231.923-.308 1.846-.462 3.077-.462 1.538 0 2.923.462 3.846 1.385s1.538 2.154 1.538 4v7.846c0 .462-.154.923-.307 1.077-.154.308-.616.308-1.231.308H95.77c-.616 0-.923-.154-1.231-.308-.308-.308-.308-.615-.308-1.077v-7.538c0-.616-.154-1.077-.461-1.231-.308-.308-.616-.462-1.231-.462-.615 0-1.077.154-1.385.462-.307.308-.461.77-.461 1.23v7.385c0 .462-.154.923-.308 1.077-.154.308-.615.308-1.23.308H86.23v.154zm24.462.462c-2.77 0-4.923-.616-6.462-2-1.538-1.232-2.308-3.078-2.308-5.54 0-1.538.308-2.768 1.077-4 .616-1.076 1.693-2 2.923-2.614 1.385-.616 2.924-.924 4.616-.924 1.384 0 2.461.154 3.384.462.924.308 1.847.615 2.462 1.23.154.154.308.308.308.462 0 .154-.154.308-.308.616l-1.231 2.154c-.154.307-.307.461-.461.461-.154 0-.308-.154-.616-.308a7.18 7.18 0 0 0-1.538-.769c-.462-.154-1.077-.308-1.692-.308-.924 0-1.847.308-2.462.924-.615.615-.923 1.538-.923 2.615 0 1.077.308 2 .923 2.615.615.616 1.385.923 2.462.923.615 0 1.23-.154 1.692-.307a7.18 7.18 0 0 0 1.538-.77c.308-.154.462-.307.616-.307.154 0 .307.154.461.461l1.385 2.308c.154.154.154.308.154.461 0 .154-.154.308-.308.462-.769.462-1.692.923-2.769 1.23-.462.308-1.539.462-2.923.462zm14-.001c-1.847 0-3.385-.615-4.462-1.846s-1.692-2.923-1.692-5.077c0-1.692.307-3.077 1.077-4.308.769-1.23 1.846-2.154 3.23-2.923 1.385-.615 3.077-1.077 4.77-1.077 1.538 0 2.769.154 4 .462 1.23.307 2.153.769 3.23 1.384V39.23c0 .308 0 .616-.153.77-.154.154-.462.154-.77.154h-3.077c-.153 0-.461 0-.461-.154l-.308-.308-.461-.923c-.616.615-1.231 1.077-2 1.385-.77.461-1.693.615-2.923.615zm2.307-4c.769 0 1.385-.154 1.846-.615.462-.308.616-.924.616-1.539V30c-.308-.154-.923-.308-1.385-.308-1.077 0-1.846.308-2.461 1.077-.616.77-.923 1.692-.923 3.077-.154 1.846.615 2.923 2.307 2.923zm26.616 2.461c.154.154.154.308.154.462 0 .154 0 .307-.154.461-.154.154-.308.154-.462.154h-5.23c-.154 0-.308-.154-.462-.308l-4-5.538v4.308c0 .461-.154.923-.308 1.077-.307.307-.615.307-1.23.307H139c-.615 0-.923-.154-1.23-.307-.154-.308-.308-.616-.308-1.077V21.692c0-.462.154-.923.308-1.077.307-.308.615-.462 1.23-.462h2.924c.615 0 .923.154 1.23.462.308.308.308.615.308 1.077v9.846l3.846-5.077c.154-.154.308-.308.462-.308.154 0 .307-.153.615-.153H153c.154 0 .308 0 .462.153.154.154.154.308.154.462 0 .154 0 .308-.154.461l-5.077 5.847 5.231 6.307zm9.538 1.539c-1.692 0-3.077-.308-4.461-.77-1.231-.615-2.308-1.384-3.077-2.461-.77-1.077-1.077-2.461-1.077-4 0-2.461.769-4.461 2.154-5.692 1.384-1.385 3.538-2 6.153-2 2.616 0 4.616.615 5.847 2 1.384 1.23 2 3.077 2 5.384 0 .923-.462 1.539-1.231 1.539h-9.231c0 .923.308 1.538.923 2 .615.461 1.692.615 2.923.615.769 0 1.539 0 2-.154.616-.153 1.077-.461 1.692-.615.308-.154.462-.154.462-.154.154 0 .308.154.462.308l1.076 1.846c.154.154.154.308.154.462 0 .153-.154.307-.307.461-.77.462-1.693.923-2.77 1.23-1.23-.153-2.307 0-3.692 0zm2.308-9.231c0-.77-.154-1.385-.616-1.692-.461-.462-1.077-.616-2-.616s-1.538.154-2 .616c-.461.461-.615.923-.615 1.692h5.231zM181 40.77a23.89 23.89 0 0 1-4.769-.462c-1.538-.308-2.615-.923-3.538-1.539-.308-.154-.462-.461-.462-.615 0-.154 0-.308.154-.462l1.385-2.307c.153-.308.307-.308.461-.308.154 0 .308 0 .462.154.769.461 1.538.769 2.461 1.077a8.71 8.71 0 0 0 2.769.461c.923 0 1.539-.154 2-.461.462-.308.616-.77.616-1.385s-.308-1.077-.769-1.385c-.462-.307-1.385-.769-2.77-1.23-2-.77-3.538-1.539-4.615-2.462-1.077-.923-1.692-2.308-1.692-3.846 0-2 .769-3.385 2.153-4.462 1.385-1.076 3.231-1.538 5.539-1.538 1.692 0 3.077.154 4.154.462 1.231.307 2.154.769 2.923 1.23.308.308.461.462.461.77 0 .153 0 .307-.153.461l-1.385 2.308c-.154.307-.308.307-.462.307-.153 0-.307 0-.461-.153-1.077-.77-2.462-1.077-4.154-1.077-.923 0-1.538.154-2 .461-.462.308-.615.77-.615 1.385 0 .461.153.77.307 1.077.308.307.616.461.923.769.462.154 1.077.462 1.847.77l.615.153c1.385.616 2.615 1.077 3.385 1.692.923.462 1.538 1.231 2 2 .461.77.615 1.693.615 2.77 0 1.692-.615 3.23-2 4.154-.923.615-2.923 1.23-5.385 1.23zm14-.461c-.308 0-.461 0-.615-.154-.154-.154-.308-.308-.308-.616l-3.846-12.769v-.308c0-.307.154-.461.615-.461h3.846c.308 0 .462 0 .616.154.154.154.154.154.307.461l1.539 6.77 2-5.385c.154-.308.154-.462.308-.462.153-.153.307-.153.615-.153h1.846c.308 0 .462 0 .616.153.153.154.153.308.307.462l2 5.385 1.693-6.77c0-.154.153-.307.307-.461.154-.154.308-.154.462-.154h4c.461 0 .615.154.615.461v.308l-3.846 12.77c-.154.307-.154.461-.308.615-.154.154-.307.154-.615.154h-2.923c-.308 0-.462 0-.616-.154-.153-.154-.307-.308-.307-.616l-2-5.384-2 5.384c-.154.308-.154.462-.308.616-.154.154-.308.154-.615.154H195zm24 .46c-1.846 0-3.384-.615-4.461-1.846-1.077-1.231-1.692-2.923-1.692-5.077 0-1.692.307-3.077 1.076-4.308.77-1.23 1.847-2.154 3.231-2.923 1.385-.615 3.077-1.077 4.769-1.077 1.539 0 2.77.154 4 .462 1.231.307 2.154.769 3.231 1.384V39.23c0 .308 0 .616-.154.77-.153.154-.461.154-.769.154h-3.077c-.154 0-.307 0-.461-.154l-.308-.308-.462-.923c-.615.615-1.23 1.077-2 1.385-.769.461-1.692.615-2.923.615zm2.308-4c.769 0 1.385-.154 1.846-.615.462-.308.616-.924.616-1.539V30c-.308-.154-.923-.308-1.385-.308-1.077 0-1.846.308-2.462 1.077-.615.77-.923 1.692-.923 3.077-.153 1.846.616 2.923 2.308 2.923zm12 9.538c-.616 0-.923-.154-1.231-.307-.154-.308-.308-.616-.308-1.077V28c.923-.616 2-1.231 3.385-1.539 1.385-.461 2.769-.615 4.154-.615 6 0 8.923 2.461 8.923 7.538 0 2.308-.615 4.154-1.846 5.539-1.231 1.384-3.077 2-5.385 2-.615 0-1.231-.154-1.846-.308s-1.077-.308-1.538-.616v4.924c0 .461-.154.923-.308 1.077-.308.307-.616.307-1.231.307h-2.769zm6.461-9.538c.924 0 1.539-.308 1.847-.923.461-.616.615-1.539.615-2.616 0-1.23-.308-2.153-.769-2.769-.462-.461-1.231-.77-2.308-.77-.615 0-1.231.155-1.538.309v4.615c0 .615.153 1.23.615 1.538.308.462.923.616 1.538.616z"/><path fill="#000" fill-rule="evenodd" d="M8.847 16.77c-.616-3.077 1.846-6 4.923-6 2.769 0 5.076 2.307 5.076 5.077V22H23v-6.153c0-2.77 2.308-5.077 5.077-5.077 3.077 0 5.539 2.923 4.923 6L31.616 24c4.615 2 8.154 5.539 8.154 10v2.616c0 3.692-2.462 6.769-5.847 8.769-3.384 2.154-8 3.385-13.077 3.385-5.076 0-9.692-1.231-13.076-3.385-3.385-2-5.847-5.077-5.847-8.77V34c0-4.461 3.539-8 8.154-10l-1.23-7.23zm21.076 8.307 1.539-8.461c.461-2.154-1.23-4.154-3.385-4.154-2 0-3.538 1.538-3.538 3.538v7.846c-.462 0-1.077-.153-1.539-.153h-2c-.769 0-1.384 0-2.154.153-.461 0-1.076.154-1.538.154v-7.846c0-2-1.538-3.538-3.538-3.538-2.154 0-3.847 2-3.385 4.154l1.538 8.615C7 27.23 3.616 30.615 3.616 34.462v2.615c0 5.846 7.692 10.616 17.23 10.616 9.539 0 17.231-4.77 17.231-10.616v-2.615c.154-4.154-3.23-7.539-8.154-9.385z" clip-rule="evenodd"/><path fill="#ACACAC" d="M38.23 36.77c0 5.846-7.691 10.615-17.23 10.615-9.538 0-17.23-4.77-17.23-10.615v-2.616h34.615v2.616h-.154z"/><path fill="#515151" fill-rule="evenodd" d="M10.385 16.462c-.462-2.154 1.23-4.154 3.385-4.154 2 0 3.538 1.538 3.538 3.538v8c1.23-.154 2.462-.308 3.692-.308 1.231 0 2.462.154 3.539.154v-7.846c0-2 1.538-3.538 3.538-3.538 2.154 0 3.846 2 3.385 4.154l-1.539 8.461C35 26.769 38.385 30.153 38.385 34c0 5.846-7.692 10.615-17.23 10.615-9.54 0-17.232-4.769-17.232-10.615 0-3.846 3.385-7.23 8.308-9.077l-1.846-8.461z" clip-rule="evenodd"/><path fill="#fff" d="M16.231 33.384c0 1.538-.923 2.923-1.846 2.923s-1.846-1.23-1.846-2.923c0-1.538.923-2.923 1.846-2.923s1.846 1.23 1.846 2.923zm13.231 0c0 1.538-.923 2.923-1.846 2.923-1.077 0-1.847-1.23-1.847-2.923 0-1.538.924-2.923 1.847-2.923.923 0 1.846 1.23 1.846 2.923z"/></svg>