<svg xmlns="http://www.w3.org/2000/svg" width="126" height="60" fill="none"><path fill="#656565" d="M.778 16.432h10.945c5.956 0 10.1 2.319 10.1 6.799 0 2.178-1.207 4.392-3.46 5.516v.07c3.42.914 4.668 3.567 4.668 5.851 0 5.675-5.413 7.73-11.308 7.73H.778V16.432zM11.804 26.48c1.83 0 2.615-1.16 2.615-2.39 0-1.194-.784-2.213-2.736-2.213H8.062v4.62h3.742v-.017zm.623 10.471c2.113 0 3.16-1.265 3.16-2.723s-1.007-2.653-3.12-2.653H8.063v5.376h4.366zm14.104-20.519h19.174v5.446h-11.89v4.726h11.93v5.446h-11.93v4.902h11.93v5.446H26.532V16.432zm23.419 0h7.364l8.23 12.14c1.166 1.704 2.494 4.427 2.494 4.427h.08s-.341-2.793-.341-4.427v-12.14h7.283v25.966h-7.324l-8.269-12.087c-1.167-1.704-2.495-4.427-2.495-4.427h-.08s.342 2.793.342 4.427v12.105H49.95V16.432zm66.878 0h7.284v25.966h-7.284V16.432zM95.984 36.548h-.04c-5.513.053-10.02-3.795-10.1-8.591-.06-4.814 4.346-8.75 9.839-8.82h.241c5.513 0 9.979 3.883 9.979 8.697 0 .949-.181 1.88-.523 2.758l4.487 5.253c5.07-6.71 2.957-15.759-4.748-20.186-7.686-4.428-18.048-2.583-23.118 4.146s-2.957 15.76 4.748 20.187c4.065 2.336 9.115 3.021 13.802 1.844-.16-.175-4.567-5.305-4.567-5.288z"/><path fill="#656565" d="m103.871 32.015-.201-.246c-.04-.052-.121-.123-.181-.193a5.632 5.632 0 0 0-.503-.44c-.08-.07-.161-.122-.262-.192l-.14-.106-.141-.105c-.101-.07-.201-.123-.322-.194-1.328-.755-2.736-1.124-4.447-1.124h-4.366s7.183 8.38 8.954 10.506c.201.246.422.475.664.685l.1.088c.081.07.161.123.262.194l.141.105.14.105c.101.07.202.123.322.194 1.328.755 2.878 1.142 4.447 1.124h4.366l-8.833-10.4z"/></svg>