<svg xmlns="http://www.w3.org/2000/svg" width="64" height="64" fill="none"><path fill="#000" fill-rule="evenodd" d="M31.185 1.14c-5.51.692-11.576 3.585-16.749 8.05-1.047.881-3.233 3.051-3.233 3.177 0 .063 1.047 1.195 2.34 2.516l2.34 2.421-.985 1.132c-3.633 4.183-6.096 8.428-7.574 12.925C6.4 34.19 6 36.518 6 39.128c0 2.359.308 4.277 1.016 6.132l.277.755 6.866 7.013c5.727 5.849 7.02 7.107 7.728 7.578 1.478 1.006 3.202 1.698 5.111 2.107 1.262.283 4.187.377 5.573.189 5.48-.692 11.145-3.334 16.102-7.547 1.294-1.101 3.48-3.208 3.48-3.334 0-.063-1.078-1.195-2.371-2.547l-2.371-2.453.739-.786c1.817-1.95 4.033-5.063 5.326-7.516 1.848-3.427 3.049-7.138 3.449-10.534.154-1.478.061-4.623-.185-5.818-.431-2.013-1.108-3.648-2.124-5.22-.524-.818-1.57-1.918-7.359-7.862l-6.773-6.918-.709-.283c-.954-.409-2.925-.88-4.125-1.006-1.201-.126-3.08-.095-4.465.063zm5.82 1.856c.492.126 1.292.314 1.723.472.801.283.832.283 2.094 1.572 1.109 1.132 1.262 1.29.985 1.258-1.477-.283-3.848-.346-5.696-.095-5.911.755-12.007 3.805-17.61 8.837-.555.503-1.048.943-1.14 1.006-.092.063-.585-.346-2.032-1.824l-1.909-1.95 1.232-1.1C19.793 6.581 25.459 3.688 31 2.87c1.478-.22 4.773-.126 6.004.126zm8.066 10c2.71.409 5.08 1.604 6.835 3.396 1.724 1.761 2.833 4.025 3.356 6.855.216 1.258.216 4.089 0 5.567-.708 4.56-2.77 9.245-5.973 13.522-.739 1.006-2.494 3.113-2.77 3.333-.155.126-.34-.031-1.94-1.667-.986-1.006-1.786-1.855-1.786-1.886 0-.032.277-.378.615-.755 5.573-6.29 8.19-14.151 6.343-19.025-.739-1.887-2.278-3.302-4.28-3.931-1.016-.315-2.801-.472-4.125-.315-2.032.189-4.526 1.007-6.928 2.202-2.401 1.194-4.587 2.704-6.712 4.654l-.954.849-1.817-1.856-1.816-1.855.77-.723c4.71-4.497 10.96-7.705 16.317-8.428 1.078-.094 3.849-.094 4.865.063zM19.609 23.845a60.471 60.471 0 0 0-1.97 2.453c-5.112 6.95-7.452 14.497-6.497 21.006l.061.41-1.262-1.259c-1.2-1.195-1.262-1.29-1.509-2.044-2.401-7.044.616-16.76 7.728-24.906l.832-.943 1.909 1.95 1.908 1.95-1.2 1.383zm24.046-4.025.246.063-.062 1.32c-.061 1.573-.277 2.862-.584 3.963-.986 3.302-2.802 6.604-5.45 9.717l-1.016 1.195-1.94-1.981-1.94-1.982.893-1.006c1.91-2.138 3.664-4.622 4.742-6.73.585-1.132 1.355-3.05 1.57-3.93.123-.535.123-.535.585-.598.246-.031.523-.063.616-.094.246 0 2.124 0 2.34.063zm-5.511 1.383c-.431 1.227-1.386 3.114-2.31 4.529-1.016 1.572-1.724 2.516-3.14 4.15l-.985 1.164-1.94-1.98-1.94-1.982.647-.598c2.001-1.823 4.341-3.459 6.496-4.59 1.17-.598 3.08-1.384 3.356-1.416.031 0-.03.315-.184.723zm-9.607 8.994c1.663 1.698 1.755 1.824 1.632 2.013-.092.094-.492.566-.923 1.069-1.725 2.013-3.326 4.465-4.403 6.73-.77 1.603-1.232 2.924-1.694 4.717-.585 2.358-.585 4.968.062 6.792 1.2 3.46 4.372 5.094 8.806 4.56 4.28-.535 9.205-3.05 13.423-6.856l.893-.817 1.817 1.855 1.817 1.856-.77.723c-3.941 3.742-9.206 6.792-13.763 7.925-1.847.471-3.14.628-4.895.628-2.34 0-4.064-.314-5.881-1.132-2.34-1.037-4.495-3.081-5.604-5.346-1.385-2.798-1.785-6.258-1.17-10 .863-5.22 3.726-10.817 7.944-15.629.431-.503.831-.912.862-.912.03 0 .862.818 1.847 1.824zm6.035 7.705c-2.525 2.421-5.758 4.59-8.436 5.692-.554.22-1.047.408-1.078.408-.03 0 .093-.346.247-.786 1.17-3.302 3.202-6.666 5.634-9.34l.585-.628 1.94 1.95 1.94 1.949-.832.755zm3.88 2.453 1.878 1.918-.585.566c-3.08 2.956-7.82 5.629-11.177 6.352-.831.189-2.678.377-3.571.377h-.585v-1.446c0-.786.03-1.635.061-1.824l.062-.377 1.2-.41c3.049-1.006 6.928-3.49 9.791-6.257.462-.44.893-.818.955-.818.061 0 .954.85 1.97 1.919z" clip-rule="evenodd"/></svg>